<?xml version="1.0" standalone="no"?>
<!DOCTYPE svg PUBLIC "-//W3C//DTD SVG 20010904//EN"
 "http://www.w3.org/TR/2001/REC-SVG-20010904/DTD/svg10.dtd">
<svg version="1.0" xmlns="http://www.w3.org/2000/svg"
 width="1300.000000pt" height="869.000000pt" viewBox="0 0 1300.000000 869.000000"
 preserveAspectRatio="xMidYMid meet">
<metadata>
Created by potrace 1.13, written by Peter Selinger 2001-2015
</metadata>
<g transform="translate(0.000000,869.000000) scale(0.100000,-0.100000)"
fill="#000000" stroke="none">
<path d="M0 8428 c1 -233 3 -263 18 -275 16 -12 16 -13 0 -7 -16 6 -18 -2 -18
-73 l0 -79 50 -49 c27 -27 53 -45 57 -41 4 4 1 13 -8 19 -19 15 -43 57 -31 57
4 0 25 -15 45 -34 48 -44 81 -51 97 -20 7 12 9 27 6 33 -11 17 13 13 42 -7 37
-25 62 -34 62 -20 0 14 -44 52 -87 75 -18 10 -33 20 -33 23 0 4 22 12 48 19
56 14 86 6 122 -33 14 -14 31 -26 38 -26 6 0 12 -4 12 -10 0 -5 5 -10 11 -10
5 0 24 -13 42 -30 18 -16 37 -30 43 -30 11 0 44 -100 44 -134 0 -13 -5 -16
-22 -10 -22 6 -21 5 5 -29 15 -20 27 -40 27 -44 0 -14 -143 -8 -148 6 -2 6
-21 11 -42 11 -21 0 -45 7 -54 15 -8 8 -22 15 -30 15 -9 0 -16 7 -16 15 0 8
-9 19 -20 25 -24 13 -26 5 -5 -16 8 -9 15 -22 15 -30 0 -22 -34 -16 -45 9 -6
12 -25 29 -42 38 -18 9 -40 22 -48 29 -10 9 -15 9 -15 1 0 -6 -4 -11 -10 -11
-5 0 -7 6 -4 14 3 8 -8 28 -24 45 -34 36 -63 42 -55 11 4 -14 0 -20 -12 -20
-21 0 -17 -52 5 -62 12 -5 12 -7 -2 -7 -15 -1 -17 -12 -17 -86 l1 -85 42 -11
c29 -8 49 -8 68 -1 16 6 30 7 33 2 7 -11 62 4 119 34 27 14 57 26 65 25 14 0
14 -1 0 -7 -20 -9 -69 -48 -69 -56 0 -12 24 -5 81 24 33 16 59 25 59 19 0 -8
5 -7 15 1 25 21 30 2 10 -38 -10 -20 -21 -41 -23 -45 -5 -10 25 5 81 40 25 16
45 21 62 17 47 -12 18 -45 -42 -47 -21 -1 -59 -15 -86 -30 -56 -33 -120 -57
-154 -57 l-24 0 25 -23 c14 -13 23 -27 20 -30 -3 -3 8 -15 25 -28 17 -13 31
-29 31 -36 0 -11 5 -11 20 -3 22 12 27 1 8 -18 -9 -9 -7 -13 8 -19 10 -4 29
-19 41 -34 12 -14 47 -43 76 -63 42 -29 62 -37 88 -34 31 3 34 6 37 40 2 23
-3 47 -12 60 -23 32 -20 48 9 48 16 0 29 9 38 26 10 19 24 28 46 30 19 2 31
-1 31 -8 0 -6 3 -9 6 -5 3 3 -2 26 -11 51 -17 44 -17 45 6 85 l22 41 -29 25
c-16 14 -36 23 -44 21 -8 -3 -30 -8 -48 -11 -29 -6 -33 -4 -30 11 2 10 18 27
37 38 19 11 32 15 28 9 -7 -10 61 -53 83 -53 12 0 14 46 3 53 -5 2 -3 2 4 1
20 -5 24 12 14 57 -6 26 -6 49 -1 58 8 14 9 14 10 -1 0 -9 5 -20 11 -23 7 -5
8 4 4 27 -5 28 -2 36 20 52 72 54 79 66 81 133 2 88 24 110 24 25 0 -35 4 -62
10 -62 6 0 10 7 10 15 0 8 5 15 10 15 6 0 10 9 10 19 0 11 4 23 10 26 5 3 12
27 16 53 5 37 15 58 50 95 24 27 44 51 44 55 -1 23 -18 30 -58 22 -23 -4 -45
-3 -48 1 -3 5 -9 9 -15 9 -14 0 -11 -38 4 -43 8 -4 9 -8 2 -14 -6 -4 -23 -29
-37 -54 -15 -25 -35 -52 -44 -60 -15 -12 -17 -12 -9 0 6 11 4 13 -10 7 -16 -6
-17 -2 -11 31 4 21 9 61 12 88 4 46 3 44 -16 -24 -20 -75 -42 -111 -67 -111
-7 0 -17 8 -20 18 -4 9 -15 23 -24 30 -14 9 -16 21 -12 48 6 34 5 36 -16 29
-13 -4 -28 -1 -37 6 -14 11 -12 16 18 42 20 17 24 24 11 18 -35 -17 -63 -14
-63 8 0 10 7 24 15 31 14 11 14 15 -2 32 -14 16 -15 23 -5 39 8 13 9 19 1 19
-19 0 -5 54 18 65 26 13 19 26 -24 49 -40 20 -55 45 -41 70 8 14 17 16 42 12
26 -5 33 -2 41 16 6 14 21 24 38 26 l28 3 -23 40 -22 39 -353 0 -354 0 1 -262z"/>
<path d="M1306 8672 c-3 -9 -8 -22 -11 -28 -3 -6 4 -14 15 -17 17 -4 21 -12
18 -34 -2 -22 -14 -34 -53 -56 l-50 -28 47 5 c50 6 68 -5 48 -29 -15 -18 -6
-19 21 -5 22 12 25 7 7 -12 -7 -8 -19 -24 -26 -36 -11 -20 -10 -22 9 -19 12 1
24 -4 26 -10 3 -8 -4 -13 -17 -13 -16 0 -20 -4 -16 -16 3 -9 6 -20 6 -26 0 -6
9 -8 20 -5 11 3 20 3 20 1 0 -2 -20 -25 -45 -51 -50 -51 -52 -69 -4 -34 17 13
33 21 35 18 8 -8 -8 -37 -21 -37 -6 0 -32 -24 -56 -52 -24 -29 -91 -103 -149
-164 -58 -61 -118 -125 -134 -143 -31 -34 -49 -36 -54 -5 -2 14 -1 16 6 6 7
-10 11 -5 16 19 7 37 -2 55 -11 21 -3 -12 -9 -22 -15 -22 -5 0 -6 -21 -3 -47
6 -41 3 -53 -19 -82 -31 -41 -31 -44 -8 -32 9 5 25 12 35 15 9 3 17 11 17 18
0 9 -3 8 -10 -2 -7 -10 -10 -11 -10 -2 0 7 34 34 75 60 41 26 75 52 75 57 0 6
30 39 66 74 40 38 62 66 55 70 -6 4 7 17 31 32 23 13 64 46 91 73 30 29 47 41
43 29 -4 -11 -3 -28 0 -38 6 -15 9 -13 21 11 13 28 13 28 8 -15 -7 -55 -25
-88 -75 -141 -22 -23 -40 -46 -40 -51 0 -5 -7 -9 -14 -9 -8 0 -26 -10 -40 -22
-41 -38 -63 -56 -167 -134 -98 -74 -120 -104 -77 -104 13 0 56 -16 97 -37 80
-39 103 -38 109 8 2 18 0 20 -6 10 -12 -17 -32 -6 -32 17 0 33 116 128 198
163 43 19 100 27 75 11 -7 -4 -19 -25 -28 -45 -9 -21 -22 -40 -30 -44 -8 -3
-15 -11 -15 -19 0 -8 -8 -14 -19 -14 -10 0 -24 -7 -31 -15 -10 -12 -6 -13 24
-8 50 8 45 -8 -9 -30 -25 -11 -45 -24 -45 -29 0 -6 -10 -8 -22 -5 -22 6 -58
-16 -58 -35 0 -5 28 -8 63 -6 54 3 62 5 62 23 0 14 8 21 25 23 14 2 32 9 40
16 26 22 241 126 260 126 10 0 21 -8 23 -17 4 -15 5 -15 6 2 1 14 4 16 9 7 6
-8 39 -13 98 -15 62 -1 94 -7 106 -17 9 -8 24 -21 32 -28 17 -14 22 -62 7 -77
-9 -10 -14 -42 -12 -82 1 -19 7 -23 32 -23 25 0 29 3 24 18 -8 27 32 74 59 70
11 -2 22 -11 24 -21 3 -13 -2 -17 -15 -15 -14 2 -19 -4 -21 -28 -2 -25 5 -39
39 -73 23 -23 47 -39 53 -36 48 24 74 47 89 78 18 39 26 44 44 26 9 -9 19 -6
39 10 32 25 44 27 44 6 0 -26 19 -16 44 23 32 51 55 70 66 53 4 -7 5 -22 3
-32 -7 -24 2 -23 52 6 22 13 54 30 72 39 23 10 39 29 54 63 44 98 49 108 49
95 0 -7 20 7 44 30 45 43 86 128 86 176 0 44 31 135 42 124 8 -8 16 -4 28 11
26 34 30 72 8 86 -24 15 -23 49 3 77 14 15 18 29 14 47 -7 25 -8 26 -31 10
-23 -15 -24 -14 -24 7 0 12 7 28 15 37 17 16 16 35 0 33 -6 -1 -8 -9 -7 -18 3
-14 1 -15 -9 -4 -7 6 -26 12 -41 12 -16 0 -39 7 -52 15 -13 9 -67 19 -126 25
-57 5 -105 12 -108 14 -12 12 80 17 164 9 78 -7 92 -6 78 4 -10 7 -41 14 -68
14 -44 1 -46 2 -18 8 18 3 32 11 32 16 -2 18 83 36 170 37 102 0 134 11 150
48 12 28 35 45 50 35 4 -3 10 4 13 15 5 19 0 20 -116 20 -97 0 -124 -3 -139
-16 -16 -15 -18 -15 -24 0 -5 14 -72 16 -749 15 -692 0 -743 -1 -749 -17z
m359 -11 c3 -5 -3 -24 -14 -43 -11 -18 -23 -49 -26 -70 -4 -20 -18 -46 -31
-59 -13 -12 -24 -29 -24 -37 0 -8 -6 -12 -15 -8 -8 3 -15 0 -15 -6 0 -6 -3 -9
-6 -5 -3 3 -15 -3 -27 -13 -19 -18 -21 -18 -33 -2 -7 9 -14 34 -14 55 0 39
-18 51 -27 17 -4 -16 -11 -19 -27 -14 -30 9 -31 11 -16 39 10 18 17 22 26 14
9 -8 15 -5 23 10 7 13 8 22 1 26 -14 8 -13 65 1 65 6 0 9 -7 6 -14 -4 -10 -1
-13 7 -10 12 5 30 -29 27 -49 -1 -5 12 1 29 13 17 12 27 26 24 32 -5 7 -2 8 5
4 7 -5 22 0 34 11 21 18 21 18 -1 -21 -32 -55 -18 -58 27 -6 39 45 46 65 15
39 -16 -13 -16 -12 -6 8 16 29 46 41 57 24z m465 -62 c0 -5 10 -9 23 -9 12 -1
33 -7 47 -15 40 -23 78 -18 107 13 23 25 30 27 100 26 60 -1 80 -6 101 -23 15
-12 38 -27 52 -33 61 -30 45 -50 -32 -39 -31 4 -55 4 -52 -1 3 -4 -5 -8 -17
-8 -21 0 -56 -9 -120 -32 -14 -5 -46 -30 -69 -55 -42 -43 -146 -103 -179 -103
-9 0 13 16 49 36 67 35 100 80 100 132 0 28 -15 28 -54 -1 -32 -23 -91 -34
-113 -19 -9 6 -9 17 2 47 8 22 14 52 15 66 0 14 3 28 6 32 8 8 34 -3 34 -14z"/>
<path d="M9210 8675 c0 -8 6 -15 14 -15 7 0 16 -11 18 -25 4 -21 3 -23 -13
-14 -24 12 -24 3 0 -45 19 -37 19 -66 -1 -66 -5 0 -1 -13 9 -30 18 -31 40 -42
29 -15 -3 8 -1 15 4 15 5 0 12 -11 16 -25 3 -13 12 -29 20 -36 25 -21 15 -29
-26 -23 l-40 7 6 -49 c3 -27 7 -55 10 -61 5 -19 24 -16 24 3 0 10 6 14 15 10
8 -3 15 -1 15 4 0 6 5 10 11 10 6 0 24 11 41 25 38 32 98 35 98 5 0 -11 -4
-20 -10 -20 -15 0 -12 -50 3 -54 123 -34 125 -35 123 -68 -1 -24 4 -33 18 -36
11 -2 16 0 12 7 -9 15 -13 101 -4 101 3 0 11 14 17 32 6 17 22 46 36 64 14 18
25 45 25 61 0 31 12 56 26 53 15 -2 25 57 14 86 -10 26 -12 26 -27 11 -13 -13
-14 -19 -5 -29 14 -14 16 -48 3 -48 -5 0 -11 9 -14 21 -5 17 -9 19 -26 10 -17
-9 -24 -8 -41 9 -11 11 -20 23 -20 26 0 13 -26 30 -40 27 -11 -3 -12 -2 -3 4
16 12 12 55 -7 70 -18 14 -293 15 -284 2 3 -5 0 -9 -5 -9 -6 0 -11 5 -11 10 0
6 -7 10 -15 10 -8 0 -15 -7 -15 -15z"/>
<path d="M9790 8671 c0 -11 -4 -23 -10 -26 -5 -3 -10 -15 -10 -25 0 -10 -4
-20 -9 -22 -4 -1 -5 -11 -2 -22 7 -18 8 -18 25 -1 28 28 30 9 3 -27 -36 -49
-39 -66 -17 -78 17 -9 20 -7 20 9 0 11 5 23 10 26 10 6 15 -13 12 -47 -1 -10
5 -18 12 -18 8 0 28 -12 45 -26 28 -23 31 -24 31 -7 0 11 -3 23 -7 27 -20 20
-10 36 23 36 19 0 34 4 34 9 0 4 -13 25 -30 46 -27 34 -41 85 -22 85 4 0 19
-14 33 -31 25 -31 27 -32 50 -16 20 15 25 15 45 2 13 -8 29 -13 36 -10 18 7
35 -6 39 -30 3 -12 14 -21 29 -23 20 -3 23 -1 13 9 -7 7 -13 24 -13 37 0 19 4
22 20 17 19 -6 19 -4 9 22 -23 57 -32 72 -41 67 -4 -3 -8 -14 -8 -25 0 -27
-18 -24 -32 6 -6 14 -15 25 -20 25 -4 0 -8 7 -8 15 0 11 -11 15 -40 15 -35 0
-40 -3 -46 -27 -10 -43 -14 -46 -35 -21 -10 13 -23 29 -29 36 -13 14 -44 17
-35 2 3 -5 2 -10 -4 -10 -5 0 -11 6 -14 13 -3 9 -7 9 -20 -2 -11 -9 -17 -10
-17 -2 0 6 -4 11 -10 11 -5 0 -10 -9 -10 -19z"/>
<path d="M10206 8675 c-3 -8 -17 -15 -31 -15 -14 0 -25 -1 -25 -3 0 -1 9 -20
20 -42 11 -22 20 -51 20 -65 0 -14 7 -43 15 -65 18 -52 19 -75 0 -75 -9 0 -15
10 -16 28 -1 16 -3 20 -6 10 -2 -10 -9 -18 -14 -18 -5 0 -9 -12 -9 -26 0 -30
-18 -51 -54 -60 -33 -8 -33 -19 -1 -40 14 -9 22 -20 19 -26 -6 -9 13 -38 26
-38 4 0 8 11 8 24 0 13 8 41 18 63 16 31 25 39 52 41 24 2 38 -2 48 -15 12
-15 15 -16 23 -3 6 8 13 11 17 7 4 -4 -1 -17 -12 -29 -10 -12 -13 -18 -6 -14
7 4 12 1 12 -8 0 -10 9 -16 24 -16 18 0 25 -6 28 -22 2 -16 9 -22 23 -21 11 2
31 -3 44 -10 20 -10 25 -9 29 3 7 20 67 80 81 80 15 0 14 -20 -3 -52 -9 -16
-11 -28 -5 -28 26 0 0 -33 -36 -46 -45 -15 -55 -17 -40 -6 6 4 16 15 23 24 14
17 5 19 -28 5 -8 -4 -37 -11 -63 -16 -41 -7 -47 -6 -42 6 8 23 -42 83 -69 83
-16 0 -26 8 -30 23 -7 21 -7 21 -15 2 -7 -16 -3 -22 15 -28 26 -9 32 -32 12
-40 -7 -3 -4 -6 8 -6 11 -1 29 -8 40 -16 16 -13 17 -16 4 -24 -21 -14 -23
-151 -2 -151 13 0 12 -3 -2 -19 -10 -11 -25 -17 -37 -14 -10 3 -19 0 -19 -6 0
-11 13 -15 36 -12 6 1 17 -12 24 -29 12 -30 25 -38 32 -20 6 18 48 -1 48 -22
0 -17 3 -18 14 -9 17 14 77 11 88 -4 4 -5 1 -16 -5 -24 -9 -12 -6 -12 15 1 20
14 27 14 31 4 7 -17 141 -14 161 4 8 6 16 21 18 33 2 15 11 23 28 25 14 2 32
6 40 9 8 4 17 7 20 7 28 7 71 35 79 52 5 12 19 25 30 29 22 7 27 20 12 29 -5
4 -29 29 -53 58 -35 42 -38 48 -15 34 15 -10 27 -21 27 -25 0 -3 9 -12 21 -19
18 -12 24 -11 39 5 9 11 23 44 30 73 7 30 30 85 51 121 22 36 39 77 39 92 0
17 5 27 15 27 19 0 19 7 -2 28 -16 16 -15 17 1 20 10 2 15 9 13 16 -3 7 4 18
14 24 10 7 19 9 19 4 0 -4 10 -12 22 -17 12 -6 27 -27 35 -49 11 -33 10 -48
-3 -105 -9 -36 -17 -76 -18 -89 -3 -21 -12 -35 -64 -92 -13 -14 -31 -37 -40
-52 -9 -16 -20 -28 -24 -28 -12 0 -9 -38 4 -46 8 -5 5 -11 -7 -20 -10 -8 -16
-16 -13 -20 4 -3 16 4 28 16 24 24 41 19 37 -11 -4 -26 -22 -42 -49 -44 -23
-2 -58 -52 -61 -87 -1 -10 -9 -18 -19 -18 -9 0 -20 -5 -23 -10 -4 -6 -11 -8
-16 -4 -5 3 -17 0 -25 -7 -18 -15 -27 -7 -32 29 -4 33 -2 31 -34 25 -15 -3
-25 -9 -22 -14 3 -5 -4 -9 -14 -9 -23 0 -48 -25 -34 -34 13 -7 72 13 72 25 0
5 4 9 10 9 19 0 5 -25 -25 -44 -16 -10 -32 -22 -35 -27 -3 -4 -48 -22 -100
-40 -52 -17 -115 -41 -140 -54 -77 -39 -219 -95 -240 -95 -29 0 -25 12 10 32
17 9 30 24 30 33 0 20 -34 19 -51 -1 -39 -47 -141 -62 -178 -25 -26 26 -91 30
-91 5 0 -15 -10 -16 -80 -11 -99 6 -170 33 -167 62 1 12 -3 19 -11 17 -7 -1
-12 5 -10 15 2 13 -5 19 -26 21 -16 2 -33 -1 -39 -7 -20 -20 -76 -12 -137 19
-33 17 -61 38 -65 50 -7 23 -25 27 -25 5 0 -30 -24 -13 -121 85 -84 83 -178
157 -249 195 -14 7 22 -35 75 -89 12 -12 14 -16 5 -10 -8 6 -39 24 -67 40 -40
22 -53 35 -53 52 0 12 -6 22 -13 22 -15 0 -63 49 -97 98 -12 18 -24 31 -27 28
-7 -7 66 -126 78 -126 5 0 30 -21 56 -46 27 -25 62 -53 78 -61 17 -9 93 -79
170 -156 139 -140 189 -175 270 -192 29 -6 29 -6 10 10 -20 17 -19 17 5 9 14
-4 41 -9 60 -9 56 -2 60 -4 53 -21 -5 -14 -3 -15 16 -4 25 13 51 -1 51 -26 0
-17 56 -42 100 -44 51 -3 52 -2 40 21 -11 20 -10 21 52 14 37 -4 74 -2 90 4
26 10 28 8 34 -17 3 -15 7 -32 9 -38 4 -14 53 -24 109 -23 36 0 38 1 17 10
-32 13 -19 23 16 14 50 -14 58 -15 78 -6 11 4 43 14 70 20 54 12 65 17 198 81
75 37 99 43 164 46 47 3 82 9 92 18 9 8 41 26 72 41 67 31 160 107 173 141 6
13 18 24 29 24 24 0 37 14 67 73 14 27 45 65 70 85 136 110 234 212 264 275
20 42 24 64 21 112 -2 50 2 70 26 121 16 34 29 64 29 67 0 8 -390 1 -432 -8
-26 -5 -38 -4 -38 4 0 7 -39 11 -121 11 -106 0 -124 -3 -146 -20 -14 -11 -30
-20 -36 -20 -5 0 -7 9 -4 20 5 18 0 20 -49 20 l-54 0 0 -47 -1 -48 -27 47
c-25 45 -30 48 -68 48 -35 0 -42 -4 -47 -22 -2 -13 -8 -32 -12 -43 -7 -16 -3
-15 22 8 35 33 43 34 43 6 0 -15 5 -19 15 -15 19 7 47 -3 39 -15 -3 -5 -18 -9
-35 -9 -16 0 -29 -4 -29 -10 0 -5 -7 -7 -15 -4 -8 4 -15 1 -15 -5 0 -6 -7 -11
-15 -11 -8 0 -15 -4 -15 -10 0 -5 4 -10 9 -10 5 0 13 -9 16 -21 6 -19 28 -24
25 -5 -2 11 22 26 32 20 4 -3 8 -16 8 -30 0 -31 25 -32 50 -1 10 12 22 19 25
15 9 -9 -12 -66 -33 -91 -14 -16 -13 -20 13 -47 16 -17 24 -30 18 -30 -16 0
-73 34 -73 43 0 5 -4 5 -10 2 -5 -3 -10 -1 -10 4 0 6 -7 11 -15 11 -8 0 -15
-7 -15 -15 0 -8 5 -15 10 -15 6 0 19 -14 30 -32 19 -32 19 -32 0 -50 -11 -11
-20 -23 -20 -29 0 -6 -5 -7 -11 -3 -6 3 -8 15 -6 26 5 19 -41 99 -73 125 -12
10 -12 14 -2 21 10 7 10 11 -3 22 -13 11 -15 9 -15 -12 0 -13 -11 -35 -25 -48
-20 -19 -27 -21 -39 -11 -12 10 -13 16 -3 32 9 15 9 23 -1 39 -6 11 -12 25
-12 32 0 7 -9 19 -20 26 -11 7 -19 21 -17 33 1 12 -4 24 -12 27 -9 3 -11 -1
-6 -17 4 -15 2 -21 -9 -21 -8 0 -20 -16 -27 -35 -7 -19 -19 -35 -27 -35 -24 0
12 -45 36 -46 20 -1 20 0 6 28 l-15 29 25 -16 c36 -24 36 -46 -1 -83 -27 -27
-36 -31 -53 -22 -12 6 -17 16 -13 26 3 8 -3 31 -13 50 -12 22 -15 37 -9 42 13
9 12 32 -4 62 l-14 25 24 -22 24 -22 21 23 c16 19 18 25 7 32 -21 14 -27 64
-8 64 8 0 15 -4 15 -10 0 -5 7 -10 15 -10 13 0 13 4 3 23 -19 32 -28 37 -74
37 -28 0 -44 -5 -48 -15z"/>
<path d="M10342 8683 c31 -65 54 -103 64 -103 19 0 25 -28 12 -56 -11 -23 -9
-28 7 -40 17 -13 20 -12 27 6 6 17 13 20 30 14 20 -6 20 -4 -5 16 -28 22 -45
53 -53 97 -7 35 14 37 23 3 5 -17 13 -31 18 -30 11 1 11 20 0 60 l-7 25 20
-22 19 -22 22 30 22 29 -41 0 c-23 0 -50 -5 -60 -10 -13 -7 -21 -7 -25 0 -7
11 -79 14 -73 3z"/>
<path d="M9725 8450 c-6 -10 15 -50 28 -50 7 0 1 -56 -9 -71 -2 -5 1 -17 7
-27 10 -16 7 -26 -14 -57 -26 -39 -26 -39 -7 -57 32 -30 24 -55 -36 -115 -30
-31 -52 -59 -47 -63 96 -81 143 -96 151 -47 2 12 -4 17 -20 17 -22 1 -23 1 -4
15 16 12 17 18 8 27 -20 20 -14 27 33 39 38 10 45 15 45 35 0 29 -14 31 -32 6
-18 -26 -53 -43 -73 -36 -14 6 -14 9 5 29 14 15 18 25 11 30 -16 9 -14 118 3
141 20 27 44 5 30 -28 -5 -13 -7 -43 -3 -68 3 -25 7 -40 7 -33 1 6 14 13 30
15 l27 4 -27 12 c-30 12 -40 52 -13 52 25 0 17 30 -15 60 -31 29 -32 43 -9
129 2 9 -5 17 -16 19 -11 2 -24 10 -28 18 -9 16 -23 18 -32 4z"/>
<path d="M9920 8413 c0 -4 10 -17 22 -30 16 -17 23 -39 26 -83 5 -73 22 -80
22 -10 0 56 15 67 24 18 7 -41 10 -50 17 -63 12 -20 20 -67 14 -84 -4 -13 -13
-17 -30 -13 -14 2 -25 0 -25 -5 0 -13 34 -43 48 -43 7 0 12 -7 12 -17 0 -9 -3
-13 -7 -10 -3 4 -11 0 -18 -9 -14 -20 -26 -9 -69 62 -19 33 -31 44 -34 34 -3
-8 -9 -18 -15 -21 -5 -4 0 -12 12 -18 25 -14 55 -67 47 -87 -10 -27 12 -64 38
-64 27 0 42 -26 26 -46 -14 -15 15 -34 53 -34 31 0 38 9 26 31 -15 29 6 23 30
-8 17 -24 22 -26 31 -13 6 10 10 11 10 3 0 -7 7 -13 15 -13 9 0 12 6 9 15 -4
9 6 22 30 36 41 24 40 33 -6 44 -24 5 -28 9 -15 12 11 3 16 11 13 19 -4 9 3
18 18 24 22 8 24 13 19 52 -3 24 -7 44 -8 46 -1 1 -14 -3 -29 -9 -23 -11 -26
-16 -20 -46 7 -36 -2 -42 -22 -15 -13 16 -13 16 -14 -1 0 -9 6 -26 12 -37 20
-32 -2 -45 -40 -23 -35 20 -50 49 -33 66 8 8 11 6 11 -8 1 -19 1 -19 11 -2 13
22 4 37 -22 37 -20 0 -20 0 1 30 26 37 40 38 40 5 0 -34 19 -31 66 9 38 34 39
35 19 50 -18 13 -18 17 -7 37 21 33 -2 48 -23 15 -14 -21 -15 -29 -5 -41 17
-20 5 -32 -15 -15 -13 10 -15 9 -15 -9 0 -26 -15 -27 -29 -3 -10 16 -12 15
-30 -8 -17 -21 -21 -23 -26 -8 -4 9 -2 32 3 52 6 20 7 38 2 41 -4 3 -6 13 -3
23 5 19 -29 53 -107 110 -45 32 -60 38 -60 25z"/>
<path d="M9363 8303 c-13 -2 -23 -12 -23 -21 0 -12 -3 -13 -11 -5 -9 9 -15 8
-25 -2 -20 -20 26 -108 85 -162 56 -52 85 -58 68 -14 -10 26 -12 28 -23 13
-10 -14 -14 -14 -29 -2 -9 7 -14 22 -12 32 3 11 0 18 -9 18 -8 0 -11 6 -7 17
5 12 3 14 -7 8 -9 -6 -11 -4 -5 5 4 7 10 29 12 49 5 46 8 48 29 16 15 -24 16
-27 0 -38 -15 -11 -14 -14 4 -42 10 -16 28 -33 40 -37 17 -6 20 -3 20 17 0 28
34 36 44 10 6 -17 26 -21 26 -5 0 6 -8 18 -18 28 -10 10 -17 23 -15 29 4 12
-43 27 -56 18 -5 -2 -12 5 -16 18 -4 12 -8 25 -10 30 -1 4 -3 12 -4 17 -1 10
-17 11 -58 3z"/>
<path d="M1204 7543 c8 -15 26 -39 40 -52 14 -14 26 -32 26 -40 0 -9 11 -33
25 -53 14 -20 25 -42 25 -47 0 -16 -16 -13 -30 4 -7 8 -23 15 -37 15 -21 0
-24 -4 -21 -32 3 -29 8 -34 47 -45 52 -15 71 -29 71 -54 0 -13 -7 -19 -24 -19
-24 0 -43 -16 -33 -26 3 -3 21 -1 40 4 32 9 35 8 35 -12 0 -56 42 -121 54 -85
3 8 15 9 36 4 18 -3 30 -11 26 -16 -3 -5 4 -9 15 -9 10 0 27 -3 37 -7 14 -5
16 -2 11 17 -6 23 19 80 35 80 13 0 9 -20 -7 -37 -14 -14 -13 -18 14 -44 70
-67 196 -118 223 -91 9 9 3 15 -24 26 -43 18 -50 33 -33 72 11 27 42 61 48 53
2 -2 17 -22 35 -45 17 -23 29 -43 27 -46 -3 -3 0 -18 5 -35 10 -26 33 -43 113
-81 4 -2 7 5 7 17 0 25 16 36 24 16 7 -20 36 -19 36 0 0 8 4 15 8 15 5 0 18 9
30 21 17 15 30 19 52 14 37 -8 39 -12 41 -68 2 -53 1 -50 59 -102 25 -22 43
-42 40 -45 -8 -7 49 -32 63 -27 7 3 -1 10 -17 16 -19 8 -26 16 -22 27 3 9 6
22 6 31 0 9 8 13 23 11 12 -2 21 -9 20 -15 -2 -6 14 -17 35 -24 20 -6 41 -15
47 -20 5 -5 17 -9 27 -9 11 0 20 -11 26 -32 6 -23 15 -34 30 -36 20 -3 21 -2
7 24 -8 16 -12 30 -9 33 5 5 20 -14 27 -34 2 -5 20 -8 39 -7 23 2 42 -4 53
-15 17 -16 17 -16 10 7 -9 30 -15 34 -83 60 -55 21 -75 36 -79 58 -4 17 1 15
43 -13 20 -14 51 -25 69 -25 25 0 34 -6 44 -26 9 -20 17 -25 33 -21 12 3 30 1
40 -4 23 -12 47 -1 27 13 -9 5 -4 6 14 2 23 -5 27 -3 27 15 0 14 -5 19 -15 15
-8 -3 -21 1 -30 9 -22 23 -18 33 5 12 11 -10 20 -13 20 -8 0 6 -21 25 -47 42
-27 16 -63 44 -82 61 -37 35 -113 85 -109 73 4 -10 -12 -12 -29 -6 -7 3 -10
10 -7 15 4 6 -1 8 -14 4 -12 -4 -34 0 -50 8 -43 22 -114 46 -137 46 -20 -1
-20 -1 -1 -15 16 -12 17 -17 6 -30 -7 -8 -24 -15 -37 -15 -23 0 -25 3 -19 35
6 29 3 36 -16 49 -32 20 -70 24 -76 7 -3 -9 0 -11 9 -7 8 4 5 0 -5 -8 -36 -29
-86 -17 -86 21 0 15 -4 22 -11 17 -7 -4 -9 -21 -5 -45 6 -39 6 -39 -27 -39
-18 0 -42 7 -54 15 -19 14 -20 17 -7 52 18 52 17 61 -6 68 -11 3 -20 15 -20
25 0 16 -5 18 -35 13 -40 -6 -54 12 -35 47 10 19 8 26 -20 55 -19 19 -27 35
-21 39 5 4 20 -7 32 -24 26 -34 39 -38 39 -12 0 30 33 52 78 52 23 0 42 4 42
10 0 9 -72 67 -96 77 -7 2 -31 -14 -55 -36 -24 -23 -50 -41 -56 -41 -7 0 -42
-13 -76 -30 -35 -16 -73 -30 -85 -30 -11 0 -48 -7 -81 -16 -81 -20 -144 -12
-179 23 -12 11 -9 15 18 24 l31 11 -28 29 c-15 16 -34 29 -40 29 -7 0 -13 6
-13 13 -1 13 -100 127 -100 114 0 -4 -14 0 -31 8 l-30 16 15 -28z"/>
<path d="M1099 7366 c-2 -2 -20 -6 -39 -9 -38 -4 -42 -20 -16 -62 6 -11 21
-46 31 -77 11 -32 23 -58 28 -58 4 0 5 5 1 12 -5 7 -3 8 5 3 7 -4 11 -18 9
-30 -4 -16 -1 -22 9 -18 7 3 13 9 13 14 0 5 5 9 11 9 6 0 8 -7 5 -15 -3 -8 -9
-22 -13 -31 -5 -13 -2 -15 13 -10 15 5 23 -2 36 -34 10 -22 21 -57 24 -80 9
-58 24 -49 24 16 0 64 13 96 36 87 8 -3 21 3 29 13 20 26 18 34 -6 34 -11 0
-18 4 -15 8 7 12 -3 23 -61 66 -29 22 -50 43 -47 48 3 4 -2 8 -10 8 -9 0 -16
5 -16 11 0 5 10 9 22 7 18 -2 22 2 22 27 1 23 -3 30 -17 29 -10 -1 -16 1 -13
4 10 10 -16 32 -39 32 -12 0 -24 -2 -26 -4z"/>
<path d="M310 7166 c8 -12 18 -23 21 -26 36 -32 145 -238 180 -340 26 -78 46
-105 24 -35 -19 64 -19 89 -1 82 31 -12 136 -99 136 -113 0 -23 -28 -71 -45
-77 -19 -8 -20 -27 -2 -27 19 0 44 30 52 63 8 32 11 33 53 7 18 -11 40 -20 50
-20 9 0 32 -21 51 -46 26 -34 39 -44 54 -40 13 3 26 -3 39 -19 10 -13 25 -22
33 -19 7 3 32 -11 54 -31 46 -42 53 -33 16 21 -14 20 -25 42 -25 49 0 7 -12
15 -26 18 -21 4 -25 1 -21 -14 3 -11 1 -17 -4 -13 -5 3 -9 19 -9 36 0 29 1 30
18 15 17 -16 42 -23 42 -12 0 11 -50 53 -50 42 0 -7 -14 4 -30 23 -16 19 -28
40 -25 47 2 6 -3 14 -11 17 -40 15 -44 -1 -14 -56 31 -58 -1 -36 -39 28 -19
30 -36 52 -39 49 -3 -2 -11 0 -18 6 -24 20 -24 -9 2 -46 14 -21 23 -39 21 -42
-4 -4 -116 71 -169 113 -23 18 -26 26 -22 60 4 31 0 45 -18 68 -82 104 -132
143 -168 131 -11 -4 -20 -3 -20 2 0 4 -24 33 -53 64 -28 31 -45 46 -37 35z"/>
<path d="M1075 6879 c-10 -43 -84 -119 -117 -119 -38 0 -40 -21 -4 -47 33 -25
56 -30 56 -11 0 20 14 -1 32 -49 13 -35 15 -50 6 -60 -9 -11 -7 -18 5 -31 19
-18 18 -25 17 81 -1 43 1 48 18 43 13 -5 22 1 30 19 9 19 19 25 45 25 30 0 67
-24 67 -43 0 -16 -18 -5 -27 15 l-10 22 -5 -22 c-4 -12 -2 -20 3 -16 5 3 9 0
9 -5 0 -6 -4 -11 -10 -11 -5 0 -9 -5 -7 -12 1 -6 -6 -14 -15 -16 -14 -3 -18 3
-18 25 0 22 -2 25 -10 13 -14 -21 -12 -36 6 -54 22 -22 38 -20 73 10 43 36 41
7 -3 -35 l-34 -33 34 -34 c56 -57 114 -68 114 -23 0 15 5 19 15 15 8 -3 15 -1
15 4 0 5 9 11 19 15 27 8 21 60 -14 119 -21 37 -31 45 -46 41 -11 -4 -35 -1
-54 5 -27 9 -37 19 -45 48 -13 48 -13 52 5 72 14 16 14 18 -3 22 -15 4 -18 1
-15 -13 8 -27 -4 -24 -51 17 -77 66 -72 64 -81 23z"/>
<path d="M11887 5668 c-71 -284 -78 -636 -27 -1253 11 -132 21 -253 22 -270 2
-23 -1 -29 -14 -27 -15 2 -15 0 -2 -27 13 -25 14 -67 10 -248 -3 -120 -6 -264
-6 -320 -1 -56 -4 -105 -9 -107 -4 -3 -4 -31 1 -63 11 -79 0 -194 -21 -210
-14 -11 -14 -14 -1 -23 13 -9 13 -12 -1 -23 -9 -6 -14 -18 -12 -25 3 -7 -8
-15 -29 -19 -31 -6 -32 -7 -8 -13 16 -4 26 -14 28 -30 2 -13 10 -30 18 -38 9
-8 13 -21 10 -28 -3 -7 1 -26 9 -41 17 -33 19 -63 4 -63 -5 0 -7 -5 -4 -10 4
-6 10 -8 15 -5 4 3 8 -5 8 -18 1 -12 10 -62 21 -112 21 -95 28 -235 11 -235
-6 0 -10 34 -10 83 0 46 -5 110 -11 142 -12 67 -60 170 -93 200 -37 34 -84 97
-82 109 2 6 1 8 -1 4 -3 -4 -32 16 -66 45 -34 29 -73 60 -86 69 -13 9 -20 21
-17 27 4 7 1 9 -8 5 -9 -4 -38 17 -80 56 -69 66 -127 110 -147 110 -7 0 -9 3
-6 7 8 7 -79 53 -100 53 -6 0 -15 5 -19 12 -4 6 -3 8 3 5 6 -4 11 4 11 20 l0
27 -27 -32 c-20 -24 -30 -29 -41 -22 -8 5 -27 10 -42 10 -15 0 -30 5 -33 10
-3 6 -14 10 -23 10 -9 0 -28 9 -41 19 -13 10 -32 16 -43 13 -14 -3 -17 0 -12
12 5 14 2 16 -20 10 -17 -4 -26 -2 -26 6 0 6 -4 9 -9 6 -5 -4 -17 -3 -26 0
-12 5 -13 9 -5 14 20 12 1 30 -31 30 -32 0 -49 24 -31 42 6 6 29 11 51 12 35
1 41 -2 42 -19 0 -17 2 -16 11 5 l10 25 11 -22 c11 -25 27 -31 27 -10 0 19
-97 105 -117 103 -8 0 -24 13 -33 29 -10 17 -23 29 -30 27 -15 -3 -51 40 -45
56 2 6 0 12 -5 12 -5 0 -14 9 -19 19 -13 23 3 76 30 107 11 11 17 23 14 26 -3
3 -1 16 4 29 9 23 10 23 10 2 1 -31 21 -40 21 -9 0 28 9 33 28 14 15 -15 15
-6 0 27 -7 15 -17 24 -25 21 -11 -4 -11 -1 -3 15 9 16 14 18 25 9 11 -9 17 -5
30 20 16 30 15 32 -4 37 -25 6 -26 13 -7 58 20 47 17 56 -42 116 -49 50 -62
69 -44 69 4 0 27 -20 50 -45 23 -25 46 -45 51 -45 5 0 11 11 13 25 4 17 -4 37
-24 65 -35 47 -31 73 15 91 18 7 37 14 42 17 6 2 4 -1 -4 -6 -8 -6 -9 -12 -3
-16 12 -7 36 20 28 32 -3 5 2 20 12 33 10 13 23 36 30 52 6 15 16 27 21 27 13
0 20 35 10 53 -9 16 -42 13 -66 -5 -7 -5 -17 -7 -23 -3 -6 4 -9 3 -8 -2 4 -13
-26 -53 -39 -53 -6 0 -31 -18 -55 -40 -47 -43 -51 -45 -79 -30 -27 15 -24 2 6
-22 14 -11 25 -29 25 -41 0 -18 -2 -19 -11 -7 -8 12 -9 9 -5 -11 13 -62 -69
-104 -114 -59 -13 13 -20 15 -20 7 0 -7 5 -18 12 -25 9 -9 8 -12 -6 -12 -13 0
-16 -5 -11 -20 4 -14 1 -22 -10 -26 -24 -9 -40 -55 -23 -66 8 -4 8 -8 2 -8 -6
0 -18 -17 -27 -37 -28 -69 -49 -128 -42 -121 7 7 75 -67 75 -80 0 -4 -17 -23
-38 -43 l-39 -36 -38 28 c-47 36 -66 38 -29 4 23 -21 24 -25 9 -25 -17 0 -16
-2 4 -24 40 -43 6 -63 -38 -23 -18 16 -21 17 -11 3 12 -15 12 -20 2 -24 -10
-3 -10 -8 3 -22 20 -22 10 -44 -16 -37 -22 6 -23 3 -8 -25 9 -16 7 -26 -10
-49 -11 -15 -18 -35 -15 -43 3 -9 1 -16 -5 -16 -6 0 -11 -7 -11 -16 0 -8 4
-13 9 -10 5 4 7 -3 4 -14 -3 -11 -9 -20 -13 -20 -11 0 -42 -168 -35 -190 7
-22 -14 -60 -33 -60 -7 0 -15 -13 -18 -29 -4 -17 -14 -31 -25 -34 -13 -4 -19
-14 -19 -35 0 -16 -11 -50 -25 -76 -14 -26 -22 -52 -19 -58 5 -7 0 -9 -12 -6
-20 5 -20 5 -24 -85 -1 -15 -6 -25 -11 -21 -6 3 -7 -5 -3 -21 3 -14 2 -25 -2
-24 -24 4 -32 -3 -26 -23 4 -17 2 -20 -13 -15 -14 6 -16 3 -11 -17 12 -47
-174 -383 -464 -841 -72 -112 -130 -206 -130 -208 0 -3 -29 -52 -65 -111 -36
-58 -65 -110 -65 -115 0 -5 -6 -16 -13 -23 -13 -13 -67 -129 -67 -143 0 -5 9
0 20 10 11 10 19 23 18 29 -2 11 44 66 55 66 4 0 -2 -15 -13 -32 -11 -18 -23
-40 -27 -48 -4 -8 -13 -20 -21 -26 -8 -6 -12 -16 -8 -22 5 -8 1 -10 -10 -5
-13 5 -15 2 -9 -18 4 -13 14 -31 21 -40 8 -8 14 -23 14 -32 0 -19 15 -23 25
-7 3 5 15 14 25 20 17 9 18 8 3 -20 -13 -27 -13 -32 1 -45 8 -8 17 -15 19 -15
2 0 26 -21 53 -46 27 -26 56 -52 64 -59 25 -20 360 -245 367 -245 3 0 19 -12
37 -27 31 -26 31 -26 5 -20 -14 4 -29 4 -32 0 -10 -10 66 -74 81 -68 7 2 16
-3 19 -13 4 -9 13 -22 21 -28 8 -6 12 -16 8 -22 -3 -6 6 -13 24 -17 16 -4 28
-12 27 -18 -1 -7 11 -13 27 -15 18 -2 30 -11 33 -23 6 -22 14 -24 30 -8 8 8
16 8 30 0 17 -10 16 -10 -5 -11 -14 0 -21 -4 -16 -11 3 -6 17 -9 30 -6 13 2
21 1 19 -3 -9 -14 20 -27 53 -25 21 2 35 -2 39 -11 3 -8 14 -14 24 -14 10 0
19 -7 19 -15 0 -11 11 -15 40 -15 22 0 40 -4 40 -10 0 -5 9 -10 20 -10 11 0
20 -4 20 -10 0 -5 18 -14 40 -20 22 -6 40 -15 40 -20 0 -6 9 -10 19 -10 11 0
22 -4 25 -9 3 -5 19 -7 36 -5 25 3 32 -1 40 -20 5 -13 20 -26 34 -30 14 -3 26
-13 26 -21 0 -9 9 -14 23 -13 13 1 37 -8 54 -20 17 -12 38 -22 47 -22 9 0 16
-5 16 -10 0 -6 70 -45 156 -87 136 -66 159 -75 176 -64 18 11 19 10 13 -8 -4
-13 -2 -21 5 -21 6 0 30 -9 54 -19 68 -31 144 -60 147 -56 2 1 10 -3 17 -11
11 -12 -112 -14 -832 -14 -666 0 -845 3 -849 13 -4 9 -7 9 -18 0 -10 -10 -732
-13 -3537 -13 -3352 0 -3524 1 -3517 18 12 30 53 243 69 362 53 388 11 804
-114 1135 -112 300 -277 554 -509 785 -292 290 -512 429 -862 544 -130 42
-282 69 -489 87 -191 16 -400 -9 -675 -83 l-50 -13 -3 -282 c-2 -242 0 -283
12 -283 8 0 18 5 21 10 4 6 13 7 23 1 9 -4 23 -6 30 -4 7 3 19 0 26 -6 7 -6
22 -9 32 -5 16 5 16 4 4 -5 -12 -9 -11 -11 10 -12 14 0 -4 -7 -40 -13 -83 -16
-120 -32 -120 -51 0 -20 12 -19 52 4 18 11 53 22 78 26 42 7 44 7 30 -10 -14
-17 -13 -17 9 -6 18 10 28 10 46 1 18 -10 25 -29 40 -111 17 -93 17 -104 2
-190 -24 -131 -77 -198 -201 -253 l-56 -25 0 -55 c0 -30 4 -58 10 -61 6 -3 10
4 10 18 0 28 27 55 59 60 13 2 30 12 37 22 13 17 14 17 14 2 0 -10 8 -17 18
-17 21 1 52 23 52 39 0 17 26 13 41 -6 13 -15 11 -16 -10 -10 -13 3 -20 2 -15
-3 19 -18 49 -15 59 7 9 21 45 39 45 22 0 -4 17 -13 38 -19 37 -12 62 -44 62
-80 0 -9 5 -21 11 -27 8 -8 5 -13 -10 -18 -27 -8 -30 -61 -3 -69 15 -5 17 -18
15 -92 -1 -48 -4 -89 -7 -91 -2 -3 -2 -11 1 -19 11 -29 -58 -107 -106 -119
-14 -4 -28 -11 -32 -16 -9 -15 -113 -48 -172 -55 -47 -6 -60 -3 -86 15 l-31
22 0 -24 c0 -18 7 -27 25 -31 35 -9 35 -46 0 -46 -21 0 -25 -5 -25 -29 0 -36
9 -61 22 -61 6 0 8 7 4 15 -3 9 0 15 9 15 7 0 16 9 20 20 5 16 12 18 38 14 50
-9 72 -42 97 -145 12 -52 38 -128 57 -169 41 -89 40 -142 -3 -193 -71 -86
-218 -237 -230 -237 -11 0 -14 -23 -14 -105 l0 -105 6500 0 6500 0 0 758 c0
746 0 759 -20 777 -13 12 -20 31 -20 55 0 22 8 48 20 63 18 23 20 40 20 181
l0 156 -40 0 c-22 0 -40 5 -40 10 0 6 -10 10 -22 11 -17 0 -19 2 -8 7 18 9 21
62 3 62 -9 0 -12 11 -9 34 4 30 3 33 -17 29 -22 -5 -21 -4 2 15 13 10 20 21
15 24 -14 8 -134 -4 -134 -13 0 -5 4 -9 9 -9 10 0 26 -64 37 -144 5 -36 3 -50
-7 -57 -29 -18 -36 -7 -49 68 -6 43 -16 100 -20 128 -4 27 -6 53 -4 56 2 4 21
10 41 13 21 4 52 11 68 16 17 5 51 12 78 15 32 4 47 11 47 21 0 11 -4 12 -19
4 -28 -14 -54 -13 -45 3 4 6 -1 4 -12 -5 -11 -9 -50 -22 -88 -28 -38 -6 -73
-13 -77 -16 -4 -2 -29 18 -55 46 -68 72 -92 77 -244 50 -69 -13 -142 -25 -162
-27 -44 -6 -50 -20 -11 -25 28 -3 45 -28 19 -28 -19 0 -21 -16 -3 -23 10 -4
10 -7 0 -18 -7 -7 -13 -9 -13 -4 0 6 -16 10 -36 11 -20 0 -39 6 -44 14 -4 7
-13 9 -19 6 -7 -5 -1 -17 18 -34 46 -44 58 -77 38 -109 -5 -7 -5 -18 -2 -24 4
-5 -1 -19 -10 -29 -13 -14 -14 -23 -6 -39 16 -28 14 -41 -6 -41 -17 -1 -17 -1
0 -11 21 -12 14 -29 -13 -29 -13 0 -17 -5 -13 -21 4 -14 8 -17 13 -9 4 7 8 1
8 -14 0 -22 -3 -24 -15 -14 -12 10 -13 7 -8 -14 5 -18 2 -27 -9 -31 -11 -4
-16 -19 -16 -46 0 -22 -5 -43 -11 -46 -7 -5 -8 4 -4 27 3 18 8 49 9 69 2 20 7
42 11 49 6 9 4 11 -4 5 -10 -5 -12 10 -9 68 2 41 0 73 -4 71 -4 -3 -10 8 -13
23 -3 15 -10 42 -15 59 -6 17 -10 40 -10 52 0 11 -11 42 -25 68 -28 52 -35 93
-11 61 12 -16 14 -16 20 -1 3 9 3 20 0 26 -4 6 -1 9 7 6 8 -3 13 -14 11 -26
-2 -11 2 -23 8 -27 6 -3 10 3 10 14 0 12 4 21 9 21 5 0 12 8 14 17 4 14 5 12
6 -4 0 -13 6 -23 12 -23 7 0 9 13 5 38 -3 20 -6 50 -6 65 0 16 -4 26 -9 23 -6
-4 -6 5 -1 24 5 18 5 41 0 55 -5 13 -18 90 -30 172 -11 81 -25 174 -31 205 -7
34 -9 86 -5 127 4 38 4 82 -1 97 l-7 29 -6 -30 -7 -30 -8 29 c-5 18 -4 36 4
47 14 24 14 46 -1 51 -7 3 -20 52 -30 114 -14 87 -15 116 -5 142 10 28 8 38
-8 69 -14 25 -20 57 -21 102 0 36 -6 91 -13 121 -6 30 -10 81 -9 113 2 40 -2
61 -11 66 -8 5 -11 13 -8 17 3 5 -1 62 -9 127 -7 65 -16 184 -19 265 -3 81
-10 188 -15 237 -8 72 -29 322 -31 370 0 6 3 93 7 195 5 118 10 171 15 146 3
-21 5 -91 2 -155 -2 -76 1 -124 8 -138 9 -18 9 -25 -5 -38 -9 -9 -16 -17 -16
-18 0 -1 7 -20 15 -42 11 -32 14 -35 15 -15 l0 25 15 -29 c8 -15 15 -36 15
-46 0 -10 7 -24 16 -31 15 -12 16 -9 11 24 -3 21 -10 44 -17 52 -26 31 19 15
49 -17 17 -18 33 -30 36 -26 3 3 -10 21 -30 39 -38 36 -44 56 -20 65 17 7 20
40 5 49 -5 3 -10 13 -10 21 0 8 5 14 10 14 6 0 10 -9 10 -20 0 -11 3 -20 6
-20 15 0 39 37 42 64 5 41 22 59 22 23 0 -15 4 -27 9 -27 15 0 6 90 -9 100 -7
4 -11 17 -7 29 7 28 -8 27 -27 -1 -18 -25 -21 -12 -6 26 7 19 17 26 35 26 31
0 34 29 5 48 -24 15 -25 28 -5 48 14 15 13 29 -8 73 -9 19 -9 25 1 28 14 5 16
33 2 33 -5 0 -10 -6 -10 -14 0 -8 -6 -16 -14 -19 -12 -5 -13 -1 -4 24 6 16 8
39 5 50 -4 16 -2 19 15 13 18 -5 19 -4 7 9 -13 14 -16 14 -31 0 -10 -9 -15
-20 -11 -26 3 -5 2 -8 -3 -4 -5 3 -38 -21 -73 -54 -35 -33 -66 -57 -69 -54 -3
3 2 40 11 83 l16 77 -5 -70 -4 -70 30 35 c17 19 52 56 76 82 38 39 44 50 35
65 -10 17 -10 17 -11 1 0 -10 -5 -18 -11 -18 -7 0 -8 14 -4 40 6 37 4 43 -25
70 -18 17 -29 30 -24 30 4 0 16 -7 26 -17 10 -9 18 -12 18 -7 0 8 -64 64 -73
64 -3 0 -12 -28 -20 -62z m-10616 -3228 c11 0 19 -7 19 -16 0 -10 7 -14 23
-12 13 1 32 -5 41 -15 10 -9 24 -17 32 -17 8 0 14 -7 14 -15 0 -8 -4 -15 -10
-15 -22 0 -7 -16 33 -35 23 -11 56 -29 73 -40 37 -24 81 -109 94 -180 4 -27
15 -68 23 -90 16 -43 20 -38 -58 -87 -11 -7 -31 -20 -45 -29 -14 -9 -52 -26
-85 -39 -118 -44 -303 -21 -376 46 -14 13 -30 24 -37 24 -7 0 -11 6 -10 13 2
7 -7 12 -19 12 -24 0 -26 5 -16 31 3 9 -3 24 -16 37 -11 12 -21 16 -21 10 0
-6 7 -16 15 -23 8 -7 12 -17 9 -22 -7 -11 -37 28 -39 51 -4 34 -25 72 -37 65
-7 -5 -8 -3 -3 6 4 7 3 15 -2 19 -16 9 -27 71 -14 71 7 0 9 10 5 24 -3 15 1
29 11 40 9 9 15 23 12 30 -4 10 0 12 14 9 13 -4 19 0 19 11 0 13 4 15 19 7 20
-11 48 8 33 24 -4 4 2 5 14 1 23 -7 50 16 40 33 -4 5 11 17 31 26 21 10 48 22
60 28 13 6 26 7 30 4 3 -4 -1 -7 -10 -7 -24 0 -21 -27 3 -40 21 -11 60 -5 60
10 0 4 11 11 25 14 29 7 25 26 -5 26 -10 0 -22 5 -26 12 -5 8 2 9 26 5 18 -4
41 -7 51 -7z m9990 -143 c110 -76 147 -114 189 -198 49 -97 65 -305 35 -450
-17 -80 -64 -186 -94 -214 -20 -17 -19 -15 3 41 37 91 64 184 71 239 16 133 1
315 -32 379 -22 43 -111 141 -142 158 -34 17 -165 127 -170 141 -2 7 7 3 20
-9 13 -11 67 -50 120 -87z m-10579 -143 c19 -16 37 -38 41 -47 3 -9 12 -17 19
-17 14 0 58 -59 58 -78 0 -7 5 -12 11 -12 19 0 48 -44 42 -64 -4 -15 -2 -18
11 -13 12 5 22 -2 34 -22 13 -23 22 -29 44 -26 32 4 36 -5 10 -28 -11 -10 -29
-15 -49 -12 -25 3 -37 -2 -50 -18 -47 -58 -107 -82 -140 -55 -19 15 -16 28 5
21 16 -6 16 -5 0 14 -10 11 -18 24 -18 30 0 6 -6 16 -14 23 -8 6 -13 17 -10
25 12 29 -18 24 -51 -9 -40 -41 -43 -51 -15 -68 49 -31 8 -69 -65 -61 -76 9
-175 68 -159 95 8 12 -16 39 -27 32 -12 -7 -39 57 -39 92 0 14 7 50 16 80 14
49 21 58 72 91 72 47 129 67 136 47 7 -19 42 -18 50 2 3 8 10 12 16 9 5 -3 10
-1 10 5 0 14 17 4 62 -36z m1101 -312 c16 -7 33 -12 39 -12 6 0 8 -9 5 -20 -3
-11 -2 -20 3 -20 4 0 10 -15 13 -32 3 -18 9 -49 12 -68 6 -30 4 -33 -7 -19 -7
8 -28 21 -46 27 -27 9 -34 9 -39 -3 -3 -8 -12 -15 -20 -15 -12 0 -14 9 -9 44
8 53 -12 68 -44 34 -17 -19 -18 -23 -5 -31 23 -13 19 -30 -5 -17 -31 17 -110
-31 -110 -66 0 -20 41 -35 59 -20 8 6 22 10 33 8 10 -2 21 4 24 12 9 23 40 3
60 -39 9 -19 23 -35 30 -35 19 0 19 -3 -24 -83 -21 -40 -37 -81 -35 -92 1 -11
0 -14 -3 -7 -8 17 -24 15 -24 -4 0 -9 -9 -18 -21 -21 -11 -3 -18 -11 -15 -19
3 -8 -4 -12 -22 -12 -15 0 -46 -3 -70 -7 -38 -6 -48 -3 -94 26 -45 29 -118 93
-118 103 0 21 34 76 46 76 14 0 16 8 12 45 -6 48 1 58 42 68 18 4 25 13 26 32
1 14 -1 25 -5 25 -4 0 -7 16 -7 35 0 35 9 45 21 25 5 -8 11 -8 20 0 7 6 17 10
21 9 5 -2 29 3 54 10 31 9 45 10 48 2 4 -13 29 -15 37 -2 3 5 -2 17 -11 26
-15 15 -15 16 9 10 14 -4 28 -2 32 5 4 7 -2 14 -15 17 -13 3 -17 9 -11 12 16
11 82 6 114 -7z m7870 6 c7 -7 18 -25 24 -40 14 -30 33 -37 33 -12 0 8 5 12
10 9 6 -4 8 -16 4 -27 -5 -18 -3 -20 20 -16 14 3 26 1 26 -5 0 -5 8 -16 18
-24 15 -13 15 -13 -6 -3 -31 15 -37 8 -23 -31 6 -17 9 -35 6 -39 -5 -9 22 -67
36 -75 5 -4 9 -17 9 -31 0 -14 7 -27 16 -31 13 -5 13 -7 2 -14 -10 -7 -8 -12
10 -24 12 -9 29 -29 37 -46 9 -16 22 -29 30 -29 8 0 15 -5 15 -12 0 -6 18 -27
41 -46 98 -84 146 -104 304 -127 55 -8 143 -21 195 -30 124 -20 260 -27 260
-14 0 6 6 7 13 2 53 -34 268 -65 312 -45 32 15 48 15 40 2 -3 -6 6 -15 20 -20
34 -13 35 -13 35 6 0 13 7 15 33 11 32 -4 77 9 77 24 0 4 6 9 13 12 6 2 5 3
-4 2 -9 -1 -23 1 -30 6 -10 6 -7 9 11 10 75 3 122 11 196 34 45 14 87 25 94
25 10 0 87 33 141 60 9 5 32 12 52 15 28 6 39 3 56 -14 26 -26 37 -26 45 -4 4
10 10 13 14 8 4 -6 24 -19 45 -29 26 -13 37 -26 37 -41 0 -15 14 -31 43 -50
23 -16 60 -45 82 -66 37 -35 41 -37 57 -22 24 22 33 10 14 -19 -13 -20 -13
-26 -1 -42 8 -11 21 -16 30 -13 10 5 15 0 15 -13 0 -13 -5 -18 -15 -14 -11 5
-13 2 -9 -10 8 -20 -26 -49 -41 -36 -6 5 -20 7 -32 4 -12 -3 -30 -1 -42 5 -31
17 -25 -2 7 -21 34 -20 69 -58 54 -58 -7 0 -12 -6 -12 -13 0 -37 -49 -35 -127
5 -19 9 -26 8 -43 -7 -25 -23 -25 -32 0 -45 16 -8 18 -8 14 4 -4 11 5 9 35 -6
23 -11 41 -24 41 -29 0 -5 5 -9 11 -9 17 0 39 -27 39 -49 0 -14 -6 -21 -20
-21 -29 0 -24 -12 16 -39 20 -14 33 -30 30 -38 -4 -9 4 -16 24 -20 17 -3 30
-12 30 -19 0 -8 9 -14 20 -14 13 0 18 -5 13 -15 -3 -10 -1 -15 7 -13 7 2 15
-3 17 -9 7 -19 -24 -16 -71 6 -117 54 -149 64 -124 37 7 -8 15 -12 17 -10 2 2
17 -8 33 -21 16 -14 40 -28 54 -31 13 -3 21 -10 18 -15 -3 -5 2 -9 10 -9 9 0
15 -5 14 -11 -2 -7 16 -21 38 -33 38 -19 41 -24 36 -54 -4 -28 -2 -32 19 -32
21 -1 20 -2 -8 -15 -41 -17 -41 -26 -3 -62 40 -37 38 -44 -10 -37 -22 4 -40 4
-40 0 0 -3 14 -19 30 -34 44 -43 40 -56 -17 -49 -27 2 -40 3 -30 0 10 -3 20
-18 24 -34 3 -16 10 -32 15 -35 5 -3 4 -12 -3 -21 -10 -12 -10 -16 2 -24 12
-8 11 -11 -4 -20 -9 -6 -15 -15 -11 -20 3 -6 -99 -9 -280 -9 -172 1 -286 5
-286 11 0 5 -5 9 -11 9 -11 0 -67 23 -102 41 -10 5 -22 7 -27 4 -6 -3 -25 5
-42 19 -42 31 -179 96 -203 96 -10 0 -15 3 -12 7 4 3 -48 33 -115 66 -68 33
-129 66 -136 74 -7 7 -24 13 -37 13 -12 0 -33 11 -46 25 -13 13 -29 25 -34 25
-6 0 -16 9 -23 20 -7 11 -21 20 -31 20 -11 0 -21 6 -24 13 -3 9 -8 8 -22 -3
-17 -14 -18 -13 -12 3 4 11 3 16 -4 12 -5 -4 -17 -1 -25 6 -8 7 -36 22 -62 34
-51 24 -162 95 -148 95 5 0 3 6 -3 14 -7 8 -37 15 -74 18 -78 5 -146 37 -211
101 -44 42 -63 51 -103 50 -7 -1 -13 4 -13 9 0 11 -38 48 -50 48 -15 0 -50 38
-50 54 0 9 -8 16 -20 16 -12 0 -24 10 -30 23 -5 12 -9 19 -9 15 -1 -5 -10 0
-21 10 -11 9 -29 25 -40 35 -11 9 -20 14 -20 10 0 -5 -4 -3 -8 2 -4 6 -22 21
-39 34 -28 19 -33 20 -33 6 0 -9 4 -14 9 -11 5 3 16 -5 25 -19 9 -14 14 -25
10 -25 -14 0 -80 46 -98 68 -10 13 -29 28 -42 33 -13 4 -23 14 -22 20 2 6 -15
17 -37 23 -28 8 -36 14 -26 20 8 5 16 3 22 -5 5 -8 9 -9 9 -4 0 6 -16 22 -35
38 -20 16 -32 21 -29 12 4 -10 0 -15 -15 -15 -14 0 -21 6 -21 20 0 11 -4 20
-10 20 -5 0 -10 -5 -10 -11 0 -8 -5 -8 -15 1 -8 7 -15 16 -15 21 0 5 7 6 15 3
8 -4 15 -1 15 5 0 6 -7 12 -15 12 -8 1 -19 2 -24 3 -5 0 -23 20 -40 43 -16 22
-34 44 -40 48 -18 11 -12 78 9 105 11 14 20 29 20 34 0 9 31 62 130 225 14 22
31 41 38 41 6 0 12 8 12 17 0 19 41 83 53 83 5 0 14 -6 20 -12z m-8572 -143
c3 2 22 0 43 -6 29 -8 35 -13 26 -23 -8 -10 -6 -15 10 -19 14 -4 20 -13 20
-34 -1 -26 -25 -71 -35 -65 -14 7 -34 0 -53 -19 -12 -11 -26 -18 -31 -15 -5 3
-16 -5 -25 -19 -14 -22 -19 -23 -41 -13 -27 12 -32 24 -13 30 6 2 -8 23 -31
47 -23 24 -40 45 -38 47 2 2 16 -8 31 -22 24 -25 28 -26 52 -13 32 17 42 38
23 50 -9 6 -10 9 -2 9 6 0 15 -5 18 -10 4 -6 12 -4 21 5 9 8 26 15 40 15 30 0
32 14 2 17 -13 0 -37 2 -55 4 -18 1 -35 9 -38 17 -4 11 0 13 20 8 19 -5 25 -3
25 10 0 13 3 14 13 5 8 -6 16 -9 18 -6z m991 -137 c2 -32 7 -42 18 -40 43 10
51 10 57 -3 3 -8 10 -15 16 -15 18 0 47 -32 47 -52 0 -10 7 -18 15 -18 20 0
28 -53 21 -151 -7 -89 -16 -127 -47 -196 -10 -24 -19 -46 -19 -49 0 -15 -67
-88 -100 -109 -20 -13 -59 -26 -86 -30 -27 -4 -56 -9 -65 -11 -11 -3 -19 3
-22 19 -4 14 -14 23 -28 24 -28 2 -29 4 -32 41 -1 17 -4 30 -7 30 -19 -1 -30
5 -45 28 -13 20 -14 28 -5 34 17 10 3 31 -15 24 -11 -5 -10 3 4 32 17 35 18
41 4 67 -8 16 -17 26 -21 23 -3 -4 0 -12 6 -18 18 -18 15 -41 -8 -61 -26 -22
-44 -22 -34 1 8 19 10 49 3 72 -2 10 2 14 14 14 9 -1 17 3 17 9 0 5 11 -2 25
-17 13 -14 27 -26 30 -26 14 0 1 23 -33 58 -75 76 -60 109 16 38 27 -26 52
-46 56 -46 14 0 4 42 -15 61 -32 32 -42 78 -23 106 8 13 18 22 22 19 11 -7 25
5 45 37 22 34 34 34 85 -4 32 -23 42 -27 42 -15 0 9 7 16 16 16 13 0 12 4 -5
18 -12 9 -28 35 -36 57 -13 38 -12 41 8 57 12 10 34 18 49 18 24 0 27 -4 30
-42z m-1416 -72 c-26 -40 -18 -54 12 -20 33 38 61 49 68 29 4 -8 12 -15 18
-15 8 0 11 -11 8 -32 -4 -28 -3 -31 10 -21 8 7 18 10 21 6 4 -3 7 -1 7 5 0 5
-5 12 -11 14 -5 2 4 14 21 27 17 12 34 20 38 16 4 -3 0 -10 -7 -14 -11 -7 -9
-11 8 -20 18 -10 21 -9 21 9 0 23 10 26 29 8 8 -8 11 -8 8 -2 -4 7 2 14 14 17
17 4 19 2 13 -16 -3 -12 -13 -29 -21 -39 -8 -9 -11 -18 -6 -20 17 -9 72 -8 78
2 3 5 14 10 23 10 11 0 -10 -26 -55 -69 -68 -64 -87 -91 -63 -91 6 0 10 4 10
9 0 5 14 14 30 21 17 7 30 20 31 29 0 11 2 12 6 3 4 -9 14 -6 38 13 45 34 69
33 62 -1 -3 -18 -1 -22 6 -15 7 7 16 4 29 -11 15 -18 18 -19 18 -4 0 9 -7 30
-14 45 -18 34 -11 68 22 98 14 13 27 23 29 23 7 0 -16 -37 -31 -50 -23 -18
-20 -59 5 -81 12 -11 19 -25 15 -34 -3 -8 0 -15 6 -15 7 0 9 15 4 46 -3 28 -2
43 4 39 6 -3 10 -2 10 3 0 14 48 67 55 60 12 -11 8 -69 -5 -81 -10 -9 -14 -9
-17 1 -5 13 -23 17 -23 4 0 -11 35 -48 56 -60 15 -9 15 -11 -2 -28 -49 -49
-103 -83 -134 -86 -21 -2 -34 -8 -32 -15 1 -7 -2 -13 -8 -13 -5 0 -10 7 -10
15 0 8 -7 15 -16 15 -10 0 -14 -5 -10 -15 3 -8 8 -21 11 -27 5 -16 -58 -58
-86 -58 -11 0 -18 -4 -15 -8 6 -11 -41 -47 -71 -54 -31 -8 -100 14 -116 36 -7
10 -26 20 -41 21 -49 6 -51 20 -10 60 35 34 36 37 14 31 -75 -20 -87 -19 -119
12 -22 21 -28 32 -19 35 9 4 10 8 2 14 -6 4 -16 17 -23 28 -11 18 -12 17 -6
-10 4 -22 3 -26 -5 -15 -5 8 -10 23 -10 34 0 15 -3 16 -14 7 -11 -10 -15 -8
-18 6 -6 30 11 107 29 123 14 13 15 13 11 0 -3 -9 1 -25 9 -35 15 -20 15 -20
9 0 -3 11 -1 27 4 35 9 13 12 12 26 -5 13 -17 16 -18 24 -5 12 19 12 27 0 35
-5 3 -10 10 -10 15 0 14 31 41 40 35 4 -3 11 2 14 11 4 9 9 14 13 11 3 -4 -2
-18 -11 -31z m878 -251 c26 -8 52 -13 56 -10 12 7 71 -68 65 -83 -4 -11 1 -44
21 -134 5 -22 3 -28 -10 -28 -21 0 -20 -6 4 -30 11 -11 22 -15 25 -10 11 18
25 10 25 -14 0 -42 -74 -119 -117 -123 -12 -1 -33 -11 -45 -23 -12 -11 -34
-23 -48 -26 -78 -16 -74 -16 -57 0 9 9 23 13 33 9 11 -4 15 -2 12 7 -2 7 -13
15 -24 16 -10 2 -34 6 -52 9 -44 8 -58 -2 -36 -26 16 -18 16 -19 -4 -19 -11 0
-34 11 -50 25 -30 25 -82 34 -82 14 0 -8 -5 -7 -15 1 -10 8 -13 21 -9 33 4 13
2 17 -5 13 -6 -4 -11 -1 -12 6 0 9 -2 9 -5 2 -7 -16 -57 32 -78 73 -21 42 -20
103 1 153 13 30 29 45 63 62 48 23 94 32 85 18 -3 -5 11 -2 31 6 21 9 41 11
47 6 20 -14 51 -8 55 11 2 9 -1 17 -7 17 -6 0 -11 5 -11 10 0 6 5 10 12 10 6
0 20 8 30 17 16 14 18 14 13 1 -4 -10 1 -17 14 -21 26 -6 37 9 21 28 -15 19
-7 19 54 0z m-851 -206 c10 -10 28 -19 41 -19 23 0 95 -48 96 -63 0 -5 -5 -5
-11 -1 -7 4 -10 1 -7 -7 2 -8 16 -20 31 -27 41 -20 79 -71 73 -98 -3 -13 -2
-26 4 -29 15 -9 12 -42 -5 -49 -8 -3 -15 -13 -15 -22 0 -17 -28 -57 -45 -65
-5 -2 -9 -7 -8 -11 3 -9 -35 -21 -46 -13 -5 3 -16 -3 -23 -14 -28 -40 -144
-88 -198 -82 -14 2 -32 4 -40 5 -57 8 -89 20 -93 37 -3 12 -14 19 -30 19 -13
0 -31 7 -38 16 -19 24 -39 84 -39 122 0 42 -16 73 -34 66 -17 -7 -30 37 -13
48 7 4 18 6 25 3 17 -6 15 2 -8 25 -26 26 -25 38 2 42 13 2 24 11 26 22 3 11
0 16 -7 12 -6 -4 -11 -2 -11 4 0 7 9 14 20 17 11 3 20 13 21 22 0 10 2 11 6 4
8 -21 39 -15 50 10 10 21 10 21 10 -5 0 -16 -3 -28 -7 -28 -14 0 -20 -44 -7
-52 26 -16 47 -9 47 17 0 16 6 25 15 25 12 0 14 -7 10 -27 -6 -26 -5 -26 8
-10 17 21 28 22 21 2 -8 -21 13 -19 25 3 10 16 10 16 11 -1 0 -11 6 -17 13
-14 6 2 12 16 12 30 -1 21 4 27 22 27 12 0 25 -4 28 -10 11 -18 25 -10 25 15
0 14 -9 33 -19 42 -11 9 -17 22 -14 30 7 19 52 8 76 -18z m1394 -283 c14 -5
23 -19 28 -44 6 -33 8 -35 20 -19 6 9 16 17 21 17 18 0 45 -42 39 -58 -3 -9
-3 -13 1 -10 7 8 49 -17 50 -30 0 -4 6 -34 14 -67 18 -83 16 -99 -12 -126 -10
-9 -18 -20 -18 -25 -1 -16 -47 -62 -70 -69 -15 -5 -20 -4 -16 3 4 7 -6 9 -30
5 -32 -5 -36 -4 -31 10 4 10 2 17 -3 17 -17 0 -11 18 8 23 28 7 36 62 14 99
-13 23 -14 32 -4 35 6 3 10 9 6 14 -3 5 2 12 10 15 23 9 20 22 -15 53 -20 19
-38 27 -51 23 -14 -3 -21 1 -25 17 -3 11 -9 21 -14 21 -5 0 -9 13 -9 29 0 16
-3 31 -7 34 -5 2 -2 2 5 1 6 -2 12 3 12 11 0 8 -7 15 -15 15 -8 0 -15 4 -15 8
0 9 77 8 107 -2z m-768 -20 c21 4 35 1 47 -10 12 -13 19 -14 30 -5 11 9 18 8
32 -5 10 -9 28 -16 38 -16 11 0 39 -9 61 -20 45 -22 83 -83 118 -190 9 -30 27
-74 38 -98 20 -40 20 -45 5 -70 -33 -55 -236 -172 -358 -206 -79 -22 -209 -9
-271 27 -70 41 -115 102 -84 114 9 3 12 10 7 17 -4 6 -14 29 -21 51 -8 22 -22
52 -32 67 -20 27 -23 48 -13 86 10 37 25 25 19 -15 -5 -34 -4 -35 5 -13 6 14
9 39 5 57 -4 25 0 37 20 59 14 15 25 33 25 40 0 8 4 14 10 14 11 0 2 -59 -12
-76 -14 -18 16 -36 43 -26 l23 9 -22 14 c-27 17 -28 50 -2 74 22 20 22 20 38
-10 10 -18 11 -18 12 -2 0 14 4 16 19 7 18 -9 18 -8 9 18 -17 44 -3 80 35 90
39 11 47 7 47 -22 0 -22 4 -23 57 -22 63 1 80 18 33 34 -16 6 -30 18 -30 27 0
12 4 14 19 5 11 -5 33 -7 50 -4z m-631 -335 c-2 -12 4 -15 26 -13 22 2 36 -6
68 -40 25 -27 41 -53 42 -70 1 -21 6 -28 21 -28 23 0 78 -39 56 -40 -8 0 11
-16 42 -37 53 -35 55 -38 59 -85 1 -27 -1 -53 -6 -59 -6 -5 -177 -9 -427 -9
-361 0 -418 2 -423 15 -3 8 0 15 7 15 8 0 7 4 -3 10 -12 7 -12 12 -2 22 9 9
12 9 12 -1 0 -7 9 -3 20 10 11 14 19 18 20 11 0 -19 25 -9 25 11 0 8 11 25 25
37 19 16 21 23 11 29 -22 14 -91 -13 -113 -44 -11 -15 -10 3 3 50 12 43 56
115 71 115 5 0 7 -4 4 -9 -3 -5 0 -11 8 -14 8 -3 16 2 19 14 3 10 12 19 21 19
8 0 38 14 66 30 59 35 60 35 60 15 0 -19 26 -20 33 -1 3 8 19 17 36 21 17 4
34 11 37 17 7 11 -88 6 -136 -7 -24 -7 -24 -6 2 8 36 20 68 24 206 24 96 0
112 -3 110 -16z m1227 -168 c36 -7 85 -40 85 -57 0 -7 9 -21 20 -31 11 -10 18
-20 15 -23 -2 -3 3 -11 13 -18 10 -8 12 -13 5 -14 -23 0 -14 -20 9 -20 20 0
20 -1 5 -18 -10 -10 -14 -22 -10 -25 3 -4 -109 -7 -250 -7 -252 0 -257 0 -245
19 7 11 22 24 35 30 13 6 23 15 23 21 0 6 -4 8 -10 5 -5 -3 -7 0 -4 8 3 8 13
18 22 21 9 3 31 14 48 25 17 10 58 22 92 26 34 4 64 11 67 15 8 12 -24 20 -69
16 -36 -3 -38 -2 -21 10 10 8 31 14 46 14 15 0 31 5 35 11 4 6 17 8 33 4 14
-3 40 -9 56 -12z"/>
<path d="M552 2105 c-12 -14 -22 -32 -22 -39 0 -8 -4 -18 -10 -21 -15 -9 -12
-48 5 -81 16 -32 20 -58 7 -50 -15 9 -52 -34 -52 -60 0 -33 19 -27 39 12 12
24 22 30 48 31 20 1 31 -3 27 -9 -4 -6 -1 -8 7 -4 8 3 21 9 29 12 16 5 60 88
60 111 0 16 -52 66 -84 81 -18 8 -26 18 -22 27 8 23 -8 18 -32 -10z"/>
<path d="M11360 1113 c0 -17 12 -28 48 -45 32 -15 41 -23 30 -26 -22 -4 -23
-18 -2 -26 10 -4 22 1 30 11 12 15 15 16 23 3 5 -8 7 -18 5 -22 -7 -11 7 -10
45 3 25 9 38 8 64 -4 17 -9 44 -18 59 -22 15 -4 32 -13 39 -21 6 -8 18 -14 26
-14 7 0 23 -16 34 -35 13 -21 29 -35 40 -35 11 0 22 -7 25 -15 4 -8 10 -15 16
-15 5 0 6 5 3 10 -3 6 0 10 8 10 8 0 22 9 32 20 17 19 17 20 -1 22 -10 0 -25
1 -32 1 -7 -1 -11 2 -7 5 7 7 -143 82 -165 82 -9 0 -24 6 -35 14 -11 7 -35 17
-53 21 -26 5 -32 11 -27 25 8 25 -15 37 -30 17 -12 -17 -95 -25 -95 -9 0 4
-15 16 -32 27 -18 10 -36 23 -40 29 -5 6 -8 1 -8 -11z"/>
<path d="M12951 2401 c-1 -10 -9 -12 -30 -8 -18 4 -31 2 -33 -5 -2 -6 -11 -13
-19 -14 -7 -2 -21 -5 -29 -6 -9 -2 -32 -14 -51 -26 -20 -12 -41 -22 -48 -22
-12 0 -16 -19 -3 -21 30 -6 62 -3 62 4 0 4 4 5 10 2 5 -3 27 -1 47 4 31 8 80
16 126 20 5 1 5 6 2 11 -3 6 -1 10 4 10 6 0 11 12 11 26 0 21 -4 25 -20 21
-10 -3 -21 0 -24 7 -3 7 -5 6 -5 -3z"/>
<path d="M7573 1173 c-13 -8 -23 -21 -23 -28 0 -8 -4 -15 -8 -17 -4 -1 -30
-31 -57 -66 -95 -121 -97 -124 -91 -165 5 -29 2 -42 -13 -58 -25 -27 -34 -96
-15 -123 18 -26 18 -45 0 -65 -20 -22 -3 -99 25 -119 11 -8 39 -51 60 -96 31
-65 53 -94 100 -135 33 -29 62 -51 65 -48 3 3 -8 15 -25 28 -26 19 -55 59 -33
45 4 -2 14 0 22 5 13 8 12 11 -3 24 -11 7 -25 11 -33 8 -8 -3 -15 1 -16 8 -2
23 -5 33 -13 52 -9 22 3 37 14 18 5 -8 11 -9 15 -3 3 5 -1 13 -10 16 -22 9
-22 9 -37 -20 l-14 -27 -21 45 c-12 24 -20 54 -17 66 2 12 -2 25 -10 30 -20
11 -46 146 -27 140 8 -3 12 5 12 28 0 8 -3 13 -7 11 -10 -6 -8 127 1 142 4 6
14 11 22 11 10 0 13 7 8 25 -7 28 24 99 61 139 14 15 27 37 31 50 10 42 72 84
93 63 6 -6 11 -7 11 -1 0 13 -21 34 -34 33 -6 0 -21 -7 -33 -16z"/>
</g>
</svg>
